name C:/MyDriveSym/Projects/mobilecap/Data\Session20210813_0001\mocap\ForceDataProcessed\DJ2_forces.mot
datacolumns 28
datarows 11
range 1.23450000 1.23950000
endheader 
time	R_ground_force_vx	R_ground_force_vy	R_ground_force_vz	R_ground_force_px	R_ground_force_py	R_ground_force_pz	R_ground_torque_x	R_ground_torque_y	R_ground_torque_z	L_ground_force_vx	L_ground_force_vy	L_ground_force_vz	L_ground_force_px	L_ground_force_py	L_ground_force_pz	L_ground_torque_x	L_ground_torque_y	L_ground_torque_z	3_ground_force_vx	3_ground_force_vy	3_ground_force_vz	3_ground_force_px	3_ground_force_py	3_ground_force_pz	3_ground_torque_x	3_ground_torque_y	3_ground_torque_z	
          1.23450000	       -130.31970300	        945.00566300	       -185.59216400	         -0.25893000	          0.00600000	         -0.27598100	          0.00000000	          0.30396900	          0.00000000	       -247.34981100	        682.32420300	        145.01536100	         -0.26467300	          0.00600000	         -0.83332400	          0.00000000	         -2.68074500	          0.00000000	          0.00000000	          0.00000000	          0.00000000	          0.00000000	          0.00000000	          0.00000000	          0.00000000	          0.00000000	          0.00000000	
          1.23500000	       -140.84967500	        925.36914000	       -182.57383200	         -0.25664700	          0.00600000	         -0.27578900	          0.00000000	          0.35704400	          0.00000000	       -254.61630400	        669.03573500	        143.79785900	         -0.26177500	          0.00600000	         -0.83400900	          0.00000000	         -2.58065100	          0.00000000	          0.00000000	          0.00000000	          0.00000000	          0.00000000	          0.00000000	          0.00000000	          0.00000000	          0.00000000	          0.00000000	
          1.23550000	       -151.18192500	        906.20657000	       -179.55474500	         -0.25432200	          0.00600000	         -0.27560100	          0.00000000	          0.39872800	          0.00000000	       -261.30998400	        656.66830200	        142.58147100	         -0.25897300	          0.00600000	         -0.83466400	          0.00000000	         -2.47542600	          0.00000000	          0.00000000	          0.00000000	          0.00000000	          0.00000000	          0.00000000	          0.00000000	          0.00000000	          0.00000000	          0.00000000	
          1.23600000	       -161.27457900	        887.54944600	       -176.54385300	         -0.25196100	          0.00600000	         -0.27541800	          0.00000000	          0.42884800	          0.00000000	       -267.44455500	        645.19099300	        141.37247000	         -0.25627900	          0.00600000	         -0.83528700	          0.00000000	         -2.36579500	          0.00000000	          0.00000000	          0.00000000	          0.00000000	          0.00000000	          0.00000000	          0.00000000	          0.00000000	          0.00000000	          0.00000000	
          1.23650000	       -171.08933800	        869.42439300	       -173.54897100	         -0.24957300	          0.00600000	         -0.27524100	          0.00000000	          0.44730600	          0.00000000	       -273.03565200	        634.57092200	        140.17672300	         -0.25370300	          0.00600000	         -0.83587700	          0.00000000	         -2.25232900	          0.00000000	          0.00000000	          0.00000000	          0.00000000	          0.00000000	          0.00000000	          0.00000000	          0.00000000	          0.00000000	          0.00000000	
          1.23700000	       -180.59158600	        851.85329500	       -170.57690900	         -0.24716500	          0.00600000	         -0.27507000	          0.00000000	          0.45407400	          0.00000000	       -278.10022400	        624.77354900	        138.99932600	         -0.25125300	          0.00600000	         -0.83643300	          0.00000000	         -2.13545100	          0.00000000	          0.00000000	          0.00000000	          0.00000000	          0.00000000	          0.00000000	          0.00000000	          0.00000000	          0.00000000	          0.00000000	
          1.23750000	       -189.75042900	        834.85341400	       -167.63360100	         -0.24474500	          0.00600000	         -0.27490600	          0.00000000	          0.44918800	          0.00000000	       -282.65618500	        615.76301900	        137.84436400	         -0.24893600	          0.00600000	         -0.83695300	          0.00000000	         -2.01548800	          0.00000000	          0.00000000	          0.00000000	          0.00000000	          0.00000000	          0.00000000	          0.00000000	          0.00000000	          0.00000000	          0.00000000	
          1.23800000	       -198.53871600	        818.43757700	       -164.72420200	         -0.24232200	          0.00600000	         -0.27474900	          0.00000000	          0.43274700	          0.00000000	       -286.72229800	        607.50246600	        136.71482700	         -0.24675600	          0.00600000	         -0.83743800	          0.00000000	         -1.89278800	          0.00000000	          0.00000000	          0.00000000	          0.00000000	          0.00000000	          0.00000000	          0.00000000	          0.00000000	          0.00000000	          0.00000000	
          1.23850000	       -206.93302800	        802.61445900	       -161.85318600	         -0.23990200	          0.00600000	         -0.27460100	          0.00000000	          0.40492700	          0.00000000	       -290.31817800	        599.95428500	        135.61268700	         -0.24471700	          0.00600000	         -0.83788700	          0.00000000	         -1.76781200	          0.00000000	          0.00000000	          0.00000000	          0.00000000	          0.00000000	          0.00000000	          0.00000000	          0.00000000	          0.00000000	          0.00000000	
          1.23900000	       -214.91365500	        787.38890600	       -159.02441200	         -0.23749600	          0.00600000	         -0.27446100	          0.00000000	          0.36596300	          0.00000000	       -293.46423600	        593.08034600	        134.53909800	         -0.24282000	          0.00600000	         -0.83830000	          0.00000000	         -1.64119700	          0.00000000	          0.00000000	          0.00000000	          0.00000000	          0.00000000	          0.00000000	          0.00000000	          0.00000000	          0.00000000	          0.00000000	
          1.23950000	       -222.46457000	        772.76226700	       -156.24119200	         -0.23510900	          0.00600000	         -0.27433000	          0.00000000	          0.31613600	          0.00000000	       -296.18147700	        586.84217800	        133.49466300	         -0.24106700	          0.00600000	         -0.83867900	          0.00000000	         -1.51372300	          0.00000000	          0.00000000	          0.00000000	          0.00000000	          0.00000000	          0.00000000	          0.00000000	          0.00000000	          0.00000000	          0.00000000	
